<svg width="18" height="17" viewBox="0 0 18 17" fill="none" xmlns="http://www.w3.org/2000/svg">
<g id="Icon_contact">
<path id="Combined Shape" d="M6.45885 14.356L6.60145 13.8767C6.47254 13.8384 6.33361 13.8536 6.21603 13.9189L6.45885 14.356ZM2.59961 16.5L2.10369 16.4362C2.07964 16.6233 2.16291 16.808 2.31903 16.9139C2.47515 17.0197 2.67755 17.0287 2.84243 16.9371L2.59961 16.5ZM3.12224 12.4351L3.61815 12.4989C3.63834 12.3419 3.58299 12.1846 3.46892 12.0748L3.12224 12.4351ZM9 15.2222C13.6374 15.2222 17.5 11.8683 17.5 7.61111H16.5C16.5 11.2086 13.1991 14.2222 9 14.2222V15.2222ZM6.31626 14.8352C7.16081 15.0865 8.06332 15.2222 9 15.2222V14.2222C8.16007 14.2222 7.35362 14.1005 6.60145 13.8767L6.31626 14.8352ZM2.84243 16.9371L6.70167 14.7931L6.21603 13.9189L2.35679 16.0629L2.84243 16.9371ZM2.62632 12.3714L2.10369 16.4362L3.09553 16.5638L3.61815 12.4989L2.62632 12.3714ZM0.5 7.61111C0.5 9.62278 1.37079 11.4437 2.77555 12.7954L3.46892 12.0748C2.239 10.8914 1.5 9.32296 1.5 7.61111H0.5ZM9 0C4.36257 0 0.5 3.35387 0.5 7.61111H1.5C1.5 4.01363 4.80087 1 9 1V0ZM17.5 7.61111C17.5 3.35387 13.6374 0 9 0V1C13.1991 1 16.5 4.01363 16.5 7.61111H17.5Z" fill="black"/>
</g>
</svg>
