<svg width="18" height="18" viewBox="0 0 18 18" fill="none" xmlns="http://www.w3.org/2000/svg">
<g id="Icon_journal">
<path id="Rectangle 53" fill-rule="evenodd" clip-rule="evenodd" d="M9 17C9 17 9 3 9 3C9 3 7.22221 1 5.44444 1C3.66666 1 1 3 1 3C1 3 1 17 1 17C1 17 3.66665 15 5.44444 15C7.22222 15 9 17 9 17Z" stroke="black" stroke-linecap="round" stroke-linejoin="round"/>
<path id="Rectangle 2" fill-rule="evenodd" clip-rule="evenodd" d="M9 17C9 17 9 3 9 3C9 3 10.7778 1 12.5556 1C14.3333 1 17 3 17 3C17 3 17 17 17 17C17 17 14.3333 15 12.5556 15C10.7778 15 9 17 9 17Z" stroke="black" stroke-linecap="round" stroke-linejoin="round"/>
</g>
</svg>
